<svg xmlns="http://www.w3.org/2000/svg" viewBox="0 0 100.118 38.47" preserveAspectRatio="xMidYMid meet" role="img" aria-label="Optra" fill="none">
<g id="Group">
<path id="Vector" d="M0 18.5486C0 16.2663 0.52212 14.2694 1.57174 12.5577C2.64828 10.846 4.09622 9.51107 5.9048 8.56371C7.74567 7.61098 9.82339 7.1373 12.1379 7.1373C14.4525 7.1373 16.5194 7.61098 18.328 8.56371C20.1689 9.51645 21.6115 10.846 22.6611 12.5577C23.7376 14.2694 24.2813 16.2663 24.2813 18.5486C24.2813 20.8308 23.743 22.7955 22.6611 24.5395C21.6115 26.2512 20.1689 27.5861 18.328 28.5334C16.5194 29.4862 14.4579 29.9599 12.1379 29.9599C9.81801 29.9599 7.74029 29.4862 5.9048 28.5334C4.09622 27.5807 2.65366 26.2512 1.57174 24.5395C0.52212 22.7955 0 20.7985 0 18.5486ZM6.28159 18.5486C6.28159 19.7866 6.53457 20.8793 7.04054 21.832C7.57881 22.7525 8.29471 23.4791 9.18285 24.0228C10.071 24.5287 11.056 24.7817 12.1326 24.7817C13.2091 24.7817 14.1941 24.5287 15.0823 24.0228C15.9704 23.4845 16.6702 22.7525 17.1761 21.832C17.7144 20.8793 17.9835 19.7866 17.9835 18.5486C17.9835 17.3106 17.7144 16.2179 17.1761 15.2651C16.6702 14.3124 15.9704 13.5858 15.0823 13.0744C14.1941 12.5684 13.2091 12.3154 12.1326 12.3154C11.056 12.3154 10.071 12.5684 9.18285 13.0744C8.29471 13.5804 7.57881 14.3124 7.04054 15.2651C6.53457 16.2179 6.28159 17.3106 6.28159 18.5486Z" fill="white"/>
<path id="Vector_2" d="M31.6125 31.2196H25.4224V7.61118H31.6125V31.2196ZM49.6068 18.5488C49.6068 21.0248 49.1169 23.1294 48.1319 24.8734C47.1469 26.6174 45.8496 27.9362 44.2295 28.8189C42.6416 29.7071 40.9299 30.1485 39.089 30.1485C37.2481 30.1485 35.5849 29.6748 34.1854 28.722C32.8182 27.7693 31.7578 26.4236 30.9988 24.6797C30.2668 22.9357 29.9062 20.8902 29.9062 18.5434C29.9062 16.1966 30.2722 14.1188 30.9988 12.4071C31.7578 10.6632 32.8236 9.31749 34.1854 8.36475C35.5795 7.41202 37.2158 6.93834 39.089 6.93834C40.9622 6.93834 42.6416 7.37972 44.2295 8.26787C45.8496 9.15601 47.1469 10.4694 48.1319 12.2134C49.1169 13.9251 49.6068 16.0351 49.6068 18.538V18.5488ZM43.2283 18.5488C43.2283 17.2462 42.9591 16.1373 42.4209 15.2169C41.8826 14.2965 41.1506 13.6021 40.2301 13.123C39.342 12.6494 38.357 12.4071 37.2804 12.4071C36.36 12.4071 35.4557 12.644 34.5676 13.123C33.7117 13.5644 32.9958 14.248 32.4252 15.1685C31.887 16.0889 31.6178 17.2139 31.6178 18.5434C31.6178 19.8729 31.887 21.0033 32.4252 21.9183C32.9958 22.8388 33.7117 23.5331 34.5676 24.0122C35.4557 24.4536 36.36 24.6797 37.2804 24.6797C38.357 24.6797 39.342 24.4428 40.2301 23.9638C41.1506 23.4901 41.8826 22.7903 42.4209 21.8699C42.9591 20.9495 43.2283 19.8406 43.2283 18.538V18.5488Z" fill="white"/>
<path id="Vector_3" d="M49.4883 7.61111H63.0042V12.7946H49.4883V7.61111ZM53.2508 0H59.1987V29.4917H53.2508V0Z" fill="white"/>
<path id="Vector_4" d="M70.4323 7.61107V29.4917H64.3876V7.61107H70.4323ZM76.8592 14.0326C76.4448 13.6504 76.0195 13.3651 75.5728 13.1768C75.1583 12.9561 74.6362 12.843 74.001 12.843C73.2421 12.843 72.5908 13.0476 72.0525 13.462C71.5143 13.8765 71.0998 14.4632 70.8145 15.2222C70.5615 15.9488 70.4323 16.837 70.4323 17.8866L68.7206 16.1749C68.7206 14.4309 69.0544 12.8915 69.7218 11.562C70.3893 10.2001 71.2613 9.11822 72.3378 8.32696C73.4197 7.50341 74.5286 7.08895 75.6697 7.08895C76.4609 7.08895 77.2091 7.23428 77.9089 7.51956C78.6409 7.80484 79.2276 8.23546 79.669 8.80602L76.8592 14.038V14.0326Z" fill="white"/>
<path id="Vector_5" d="M85.4123 22.688C85.4123 23.3232 85.5684 23.8776 85.886 24.3513C86.2036 24.7927 86.6288 25.1425 87.1725 25.3955C87.743 25.6162 88.362 25.7292 89.0295 25.7292C89.9822 25.7292 90.8381 25.5408 91.6024 25.1587C92.3614 24.7442 92.9804 24.1736 93.4594 23.447C93.9331 22.688 94.1753 21.7837 94.1753 20.7341L94.9343 23.5869C94.9343 24.981 94.536 26.1545 93.7447 27.1072C92.9858 28.0599 91.9846 28.7705 90.7466 29.2495C89.5408 29.7232 88.2705 29.9654 86.941 29.9654C85.6115 29.9654 84.3089 29.6963 83.1301 29.158C81.9566 28.6197 81.0039 27.8446 80.2719 26.8273C79.5721 25.7831 79.2276 24.5128 79.2276 23.0218C79.2276 20.8956 79.9704 19.2162 81.4668 17.9782C82.9578 16.7402 85.0678 16.1212 87.7968 16.1212C89.191 16.1212 90.4128 16.2665 91.4625 16.5518C92.539 16.8371 93.4433 17.1869 94.1753 17.596C94.9074 18.0105 95.4295 18.4034 95.7471 18.7856V21.6384C94.8912 21.0033 93.9223 20.5296 92.8458 20.212C91.7962 19.8944 90.6873 19.7383 89.5139 19.7383C88.5612 19.7383 87.7861 19.8675 87.1832 20.1205C86.5804 20.3412 86.1336 20.6749 85.8483 21.1217C85.563 21.5361 85.4177 22.0583 85.4177 22.6934L85.4123 22.688ZM83.0278 13.7958L80.7402 9.60812C81.8813 9.00526 83.2808 8.4347 84.9279 7.89643C86.5804 7.32587 88.4212 7.04059 90.4505 7.04059C92.3237 7.04059 93.9869 7.30972 95.451 7.84799C96.9097 8.38625 98.0508 9.17751 98.8798 10.2271C99.7033 11.2445 100.118 12.4932 100.118 13.9842V29.4917H94.1699V15.2707C94.1699 14.6678 94.073 14.1619 93.8847 13.7474C93.6963 13.306 93.3948 12.94 92.9804 12.6547C92.5982 12.3694 92.1407 12.1649 91.6024 12.0357C91.0641 11.9065 90.4613 11.8473 89.7938 11.8473C88.7765 11.8473 87.813 11.9604 86.8926 12.181C85.9721 12.4017 85.1809 12.6709 84.5134 12.9884C83.846 13.306 83.3561 13.5752 83.0386 13.7958H83.0278Z" fill="white"/>
<path id="Vector_6" d="M31.6179 32.8613H25.4278V38.47H31.6179V32.8613Z" fill="#39A185"/>
</g>
</svg>
